<svg xmlns="http://www.w3.org/2000/svg" xmlns:xlink="http://www.w3.org/1999/xlink" width="172" height="172" viewBox="0 0 172 172">
  <defs>
    <clipPath id="clip-path">
      <circle id="Ellipse_69" data-name="Ellipse 69" cx="86" cy="86" r="86" transform="translate(-0.173 -0.172)" fill="#fff"/>
    </clipPath>
    <clipPath id="clip-path-2">
      <rect id="Rectangle_618" data-name="Rectangle 618" width="127.456" height="128.914" fill="none"/>
    </clipPath>
  </defs>
  <g id="Group_2824" data-name="Group 2824" transform="translate(-8746 -2231)">
    <g id="Group_2724" data-name="Group 2724" transform="translate(8294.959 1037.958)">
      <circle id="Ellipse_66" data-name="Ellipse 66" cx="86" cy="86" r="86" transform="translate(451.041 1193.042)" fill="#fff"/>
      <g id="Mask_Group_2" data-name="Mask Group 2" transform="translate(451.214 1193.213)" clip-path="url(#clip-path)">
        <g id="Group_2761" data-name="Group 2761" transform="translate(32.111 30.123)">
          <g id="Group_2757" data-name="Group 2757" transform="translate(-10.411 -4.332)">
            <g id="Group_2756" data-name="Group 2756" clip-path="url(#clip-path-2)">
              <path id="Path_1003" data-name="Path 1003" d="M71.4,35.742a1.624,1.624,0,0,1-1.624-1.625v-8.1a1.624,1.624,0,0,1,3.249,0v8.1A1.624,1.624,0,0,1,71.4,35.742" transform="translate(-7.672 -2.682)" fill="#020a28"/>
              <path id="Path_1004" data-name="Path 1004" d="M117.422,74.664h-8.1a1.624,1.624,0,1,1,0-3.249h8.1a1.624,1.624,0,1,1,0,3.249" transform="translate(-11.842 -7.852)" fill="#020a28"/>
              <path id="Path_1005" data-name="Path 1005" d="M71.4,120.685a1.624,1.624,0,0,1-1.624-1.624v-8.1a1.624,1.624,0,1,1,3.249,0v8.1a1.624,1.624,0,0,1-1.624,1.624" transform="translate(-7.672 -12.022)" fill="#020a28"/>
              <path id="Path_1006" data-name="Path 1006" d="M32.478,74.664h-8.1a1.624,1.624,0,0,1,0-3.249h8.1a1.624,1.624,0,1,1,0,3.249" transform="translate(-2.502 -7.852)" fill="#020a28"/>
              <path id="Path_1007" data-name="Path 1007" d="M74.8,78.062a1.622,1.622,0,0,1-1.149-.475l-21.6-21.6a1.624,1.624,0,0,1,2.3-2.3l21.6,21.6A1.624,1.624,0,0,1,74.8,78.062" transform="translate(-5.671 -5.851)" fill="#d7263d"/>
              <path id="Path_1008" data-name="Path 1008" d="M65.332,77.061a1.624,1.624,0,0,1-1.149-2.772l29.7-29.7a1.624,1.624,0,0,1,2.3,2.3l-29.7,29.7a1.622,1.622,0,0,1-1.149.475" transform="translate(-7.005 -4.85)" fill="#d7263d"/>
              <path id="Path_1009" data-name="Path 1009" d="M65.229,118.445A51.578,51.578,0,0,1,28.758,30.4a1.625,1.625,0,0,1,2.3,2.3A48.174,48.174,0,1,0,44.88,23.019a1.624,1.624,0,1,1-1.37-2.946,51.583,51.583,0,1,1,21.719,98.372" transform="translate(-1.501 -1.681)" fill="#020a28"/>
              <path id="Path_1010" data-name="Path 1010" d="M63.728,129.094A63.761,63.761,0,0,1,5.245,40.008,1.625,1.625,0,0,1,8.226,41.3,60.486,60.486,0,1,0,31.074,14.451a1.624,1.624,0,0,1-1.757-2.732A63.731,63.731,0,1,1,63.728,129.094" transform="translate(0 -0.18)" fill="#020a28"/>
              <path id="Path_1011" data-name="Path 1011" d="M12.238,26.77,24.2,0,41.4,23.747ZM24.869,6.464,17.5,22.959l17.969-1.864Z" transform="translate(-1.346)" fill="#d7263d"/>
            </g>
          </g>
        </g>
      </g>
    </g>
  </g>
</svg>
