<svg xmlns="http://www.w3.org/2000/svg" xmlns:xlink="http://www.w3.org/1999/xlink" width="172" height="172" viewBox="0 0 172 172">
  <defs>
    <clipPath id="clip-path">
      <circle id="Ellipse_70" data-name="Ellipse 70" cx="86" cy="86" r="86" transform="translate(-0.046 -0.046)" fill="#fff"/>
    </clipPath>
    <clipPath id="clip-path-2">
      <rect id="Rectangle_620" data-name="Rectangle 620" width="127.172" height="127.172" fill="none"/>
    </clipPath>
  </defs>
  <g id="Group_2823" data-name="Group 2823" transform="translate(-879 -1208)">
    <g id="Group_2726" data-name="Group 2726" transform="translate(14.046 15.046)">
      <circle id="Ellipse_67" data-name="Ellipse 67" cx="86" cy="86" r="86" transform="translate(864.954 1192.954)" fill="#fff"/>
      <g id="Mask_Group_3" data-name="Mask Group 3" transform="translate(865 1193)" clip-path="url(#clip-path)">
        <g id="Group_2760" data-name="Group 2760" transform="translate(22.248 22.248)">
          <path id="Path_1012" data-name="Path 1012" d="M92.6,130.512h-22V88.568H85.612V91.8H73.827v35.486H92.6Z" transform="translate(-8.147 -10.22)" fill="#d7263d"/>
          <g id="Group_2759" data-name="Group 2759">
            <g id="Group_2758" data-name="Group 2758" clip-path="url(#clip-path-2)">
              <path id="Path_1013" data-name="Path 1013" d="M100.358,136.386h-.04a5.8,5.8,0,0,1-5.933-5.66l-.06-19.063a1.614,1.614,0,0,1,1.609-1.62h.005a1.614,1.614,0,0,1,1.614,1.609l.06,19.063a2.614,2.614,0,0,0,2.727,2.441h.021c.823,0,2.181-.34,2.219-2.575l.235-13.573a1.616,1.616,0,0,1,1.614-1.587h.028a1.614,1.614,0,0,1,1.587,1.642l-.235,13.574c-.069,3.956-2.867,5.749-5.454,5.749" transform="translate(-10.885 -12.698)" fill="#020a28"/>
              <path id="Path_1014" data-name="Path 1014" d="M128.279,124.38a5.787,5.787,0,0,1-2.893-.753,5.324,5.324,0,0,1-2.607-4.78l.011-9.032A1.614,1.614,0,0,1,124.4,108.2h0a1.613,1.613,0,0,1,1.612,1.616l-.01,9.031a2.1,2.1,0,0,0,.993,1.98,2.845,2.845,0,0,0,4.153-2.747l-.024-12.242L131.14,93.3c.005-6.4-1.8-7.92-3.89-9.685-2.169-1.831-4.627-3.906-4.51-10.58a1.615,1.615,0,0,1,3.23.058c-.091,5.139,1.433,6.425,3.362,8.054,2.364,2,5.043,4.258,5.037,12.154l-.01,12.54.024,12.238a6.1,6.1,0,0,1-2.991,5.473,6.247,6.247,0,0,1-3.114.83" transform="translate(-14.163 -8.245)" fill="#020a28"/>
              <path id="Path_1015" data-name="Path 1015" d="M88.388,115.152h-.02a3.509,3.509,0,0,1-3.584-3.807l.043-17.832c.1-7.706,6.4-12.3,9.1-13.924,1.835-1.1,1.786-1.915,1.642-4.335-.039-.648-.083-1.383-.083-2.191a1.615,1.615,0,0,1,3.231,0c0,.713.039,1.367.076,2,.158,2.668.309,5.189-3.2,7.3-2.238,1.341-7.451,5.117-7.532,11.18l-.044,17.814a.936.936,0,0,0,.094.525c.1.072.706.126,1.665-.356a6.292,6.292,0,0,0,3.456-5.254l.033-4.471a1.614,1.614,0,0,1,1.614-1.6h.012a1.614,1.614,0,0,1,1.6,1.626l-.033,4.47c-.037,5.153-4.838,8.862-8.068,8.862" transform="translate(-9.784 -8.245)" fill="#020a28"/>
              <path id="Path_1016" data-name="Path 1016" d="M109.56,140.552a5.435,5.435,0,0,1-5.546-5.774l-.1-16.806a1.615,1.615,0,0,1,1.606-1.624h.009a1.613,1.613,0,0,1,1.614,1.6l.1,16.807c.012,2.227,1.448,2.564,2.312,2.564h.015c1.2-.005,2.892-.765,2.886-2.437l-.05-17.312a1.614,1.614,0,0,1,1.61-1.619h0a1.615,1.615,0,0,1,1.615,1.61l.051,17.311c.01,3.536-3.1,5.662-6.1,5.676Z" transform="translate(-11.992 -13.381)" fill="#020a28"/>
              <path id="Path_1017" data-name="Path 1017" d="M119.053,137.432c-2.6,0-5.4-1.786-5.5-5.745a1.615,1.615,0,0,1,3.229-.079c.055,2.284,1.47,2.616,2.3,2.594a2.6,2.6,0,0,0,2.7-2.436l-.025-5.95a1.614,1.614,0,0,1,1.608-1.621h.007a1.614,1.614,0,0,1,1.614,1.607l.024,5.95a5.779,5.779,0,0,1-5.884,5.678h-.081" transform="translate(-13.104 -14.332)" fill="#020a28"/>
              <path id="Path_1018" data-name="Path 1018" d="M130.512,70.292H88.568V55.818H91.8V67.064h35.486V48.291h3.229Z" transform="translate(-10.22 -5.573)" fill="#d7263d"/>
              <path id="Path_1019" data-name="Path 1019" d="M111.656,47.907a1.614,1.614,0,0,1-.005-3.229l19.063-.061a2.614,2.614,0,0,0,2.442-2.727c.005-.82-.322-2.2-2.575-2.24l-13.574-.236a1.615,1.615,0,0,1,.027-3.23h.028l13.574.237c3.975.068,5.768,2.894,5.749,5.492a5.8,5.8,0,0,1-5.66,5.934l-19.063.06Z" transform="translate(-12.698 -4.175)" fill="#020a28"/>
              <path id="Path_1020" data-name="Path 1020" d="M73.488,19.506c-.149,0-.3,0-.455,0a1.615,1.615,0,1,1,.058-3.229c5.12.092,6.425-1.433,8.054-3.363,1.994-2.361,4.254-5.036,12.128-5.036H93.3l12.541.009,12.237-.024h.016a6.067,6.067,0,0,1,5.535,9,5.323,5.323,0,0,1-4.773,2.607h-.008l-9.031-.012a1.614,1.614,0,0,1,0-3.229h0l9.031.011h0a2.1,2.1,0,0,0,1.977-.993,2.844,2.844,0,0,0-2.739-4.152h-.01l-12.242.025L93.3,11.1H93.27c-6.372,0-7.9,1.8-9.658,3.89-1.788,2.119-3.81,4.513-10.124,4.513" transform="translate(-8.245 -0.907)" fill="#020a28"/>
              <path id="Path_1021" data-name="Path 1021" d="M111.356,57.142h-.012L93.512,57.1c-7.707-.1-12.3-6.4-13.924-9.1-1.1-1.834-1.916-1.785-4.335-1.641-.648.039-1.383.081-2.191.081a1.614,1.614,0,1,1,0-3.229c.713,0,1.367-.039,2-.077,2.671-.158,5.191-.308,7.3,3.2,1.341,2.237,5.116,7.451,11.18,7.532l17.814.044h.006a.936.936,0,0,0,.518-.093c.072-.1.127-.706-.356-1.666a6.3,6.3,0,0,0-5.255-3.456l-4.471-.033a1.614,1.614,0,0,1,.012-3.229h.011l4.47.033c5.163.038,8.877,4.857,8.862,8.087a3.507,3.507,0,0,1-3.795,3.585" transform="translate(-8.245 -4.97)" fill="#020a28"/>
              <path id="Path_1022" data-name="Path 1022" d="M117.962,38.308a1.614,1.614,0,0,1-.01-3.229l16.807-.1c2.24-.012,2.567-1.463,2.564-2.327-.005-1.2-.763-2.886-2.43-2.886h-.007l-17.311.05h0a1.614,1.614,0,0,1-.005-3.229l17.311-.051h.018c3.526,0,5.645,3.1,5.658,6.1a5.435,5.435,0,0,1-5.773,5.571l-16.807.1Z" transform="translate(-13.381 -3.062)" fill="#020a28"/>
              <path id="Path_1023" data-name="Path 1023" d="M131.646,28.709a1.614,1.614,0,0,1-.039-3.228c2.285-.057,2.606-1.468,2.595-2.3a2.6,2.6,0,0,0-2.426-2.7h-.01l-5.949.026h-.007a1.615,1.615,0,0,1-.006-3.231l5.948-.024h.026a5.78,5.78,0,0,1,5.654,5.884c.037,2.618-1.744,5.481-5.744,5.578Z" transform="translate(-14.332 -1.99)" fill="#020a28"/>
              <path id="Path_1024" data-name="Path 1024" d="M70.292,49.721H55.817V46.492H67.063V11.006H48.29V7.778h22Z" transform="translate(-5.572 -0.898)" fill="#d7263d"/>
              <path id="Path_1025" data-name="Path 1025" d="M46.291,30.282a1.614,1.614,0,0,1-1.614-1.609L44.615,9.61A2.612,2.612,0,0,0,41.889,7.17h-.02c-.824,0-2.181.34-2.22,2.574l-.234,13.574A1.616,1.616,0,0,1,37.8,24.905H37.77a1.615,1.615,0,0,1-1.586-1.643l.235-13.573c.069-3.956,2.867-5.748,5.454-5.748h.04A5.793,5.793,0,0,1,47.846,9.6l.06,19.063a1.614,1.614,0,0,1-1.609,1.62Z" transform="translate(-4.175 -0.455)" fill="#020a28"/>
              <path id="Path_1026" data-name="Path 1026" d="M17.887,65.409h-.029a1.616,1.616,0,0,1-1.586-1.643c.09-5.14-1.433-6.427-3.363-8.056-2.364-2-5.042-4.257-5.036-12.154l.01-12.541L7.858,18.778a6.068,6.068,0,0,1,9-5.55,5.322,5.322,0,0,1,2.607,4.781l-.01,9.031a1.616,1.616,0,0,1-1.615,1.613h0a1.614,1.614,0,0,1-1.612-1.617L16.232,18a2.1,2.1,0,0,0-.993-1.98,2.844,2.844,0,0,0-4.152,2.747l.025,12.242L11.1,43.558c-.005,6.4,1.8,7.92,3.891,9.685,2.168,1.831,4.626,3.906,4.508,10.58a1.614,1.614,0,0,1-1.614,1.586" transform="translate(-0.907 -1.44)" fill="#020a28"/>
              <path id="Path_1027" data-name="Path 1027" d="M44.823,66.613A1.614,1.614,0,0,1,43.208,65c0-.712-.039-1.367-.077-2-.158-2.67-.309-5.191,3.206-7.3,2.237-1.342,7.45-5.116,7.532-11.181l.043-17.813a.936.936,0,0,0-.092-.525,2.284,2.284,0,0,0-1.666.356A6.292,6.292,0,0,0,48.7,31.794l-.033,4.469a1.615,1.615,0,1,1-3.23-.023l.033-4.47c.038-5.152,4.837-8.861,8.068-8.861h.02a3.507,3.507,0,0,1,3.584,3.806L57.1,44.548c-.1,7.707-6.4,12.3-9.1,13.925-1.834,1.1-1.786,1.914-1.643,4.335.039.648.082,1.384.082,2.191a1.613,1.613,0,0,1-1.614,1.614" transform="translate(-4.97 -2.644)" fill="#020a28"/>
              <path id="Path_1028" data-name="Path 1028" d="M28.2,24.6a1.614,1.614,0,0,1-1.614-1.61L26.538,5.676C26.526,2.141,29.631.013,32.64,0h.026a5.435,5.435,0,0,1,5.546,5.774l.1,16.807A1.616,1.616,0,0,1,36.7,24.205h-.009A1.616,1.616,0,0,1,35.078,22.6l-.1-16.807c-.012-2.226-1.447-2.563-2.313-2.563h-.015c-1.2.005-2.891.765-2.886,2.438l.05,17.309a1.614,1.614,0,0,1-1.61,1.62Z" transform="translate(-3.062)" fill="#020a28"/>
              <path id="Path_1029" data-name="Path 1029" d="M18.886,17.839a1.615,1.615,0,0,1-1.615-1.607l-.025-5.949A5.78,5.78,0,0,1,23.13,4.6c2.62-.054,5.48,1.744,5.578,5.744A1.615,1.615,0,0,1,27.133,12h-.04a1.616,1.616,0,0,1-1.614-1.575c-.056-2.285-1.461-2.585-2.3-2.594a2.6,2.6,0,0,0-2.7,2.436l.025,5.949a1.614,1.614,0,0,1-1.607,1.621Z" transform="translate(-1.99 -0.531)" fill="#020a28"/>
              <path id="Path_1030" data-name="Path 1030" d="M11.006,92.6H7.778v-22H49.721V85.074h-3.23V73.828H11.006Z" transform="translate(-0.898 -8.147)" fill="#d7263d"/>
              <path id="Path_1031" data-name="Path 1031" d="M23.291,106.047h-.028l-13.574-.236c-3.976-.069-5.767-2.9-5.748-5.493A5.794,5.794,0,0,1,9.6,94.385l19.062-.06h.006a1.614,1.614,0,0,1,.005,3.229l-19.063.061a2.613,2.613,0,0,0-2.441,2.727c-.005.82.321,2.2,2.575,2.24l13.574.236a1.615,1.615,0,0,1-.027,3.229" transform="translate(-0.455 -10.885)" fill="#020a28"/>
              <path id="Path_1032" data-name="Path 1032" d="M18.763,134.385a6.068,6.068,0,0,1-5.535-9A5.323,5.323,0,0,1,18,122.78h.006l9.032.011a1.614,1.614,0,1,1,0,3.229h0L18,126.009h0a2.1,2.1,0,0,0-1.976.993,2.844,2.844,0,0,0,2.738,4.153h.01l12.242-.025,12.545.011h.026c6.374,0,7.9-1.8,9.659-3.89,1.831-2.168,3.9-4.619,10.58-4.509a1.615,1.615,0,0,1-.028,3.229h-.028c-5.141-.091-6.427,1.433-8.056,3.363-1.993,2.361-4.254,5.036-12.127,5.036h-.027l-12.54-.009-12.238.024Z" transform="translate(-1.44 -14.163)" fill="#020a28"/>
              <path id="Path_1033" data-name="Path 1033" d="M61.37,98.859a5.888,5.888,0,0,1-5.668-3.27c-1.341-2.237-5.117-7.45-11.181-7.532l-17.814-.044a.965.965,0,0,0-.524.094c-.072.1-.128.706.356,1.666a6.294,6.294,0,0,0,5.254,3.455l4.47.033a1.614,1.614,0,0,1-.012,3.229h-.011l-4.471-.033c-5.163-.038-8.877-4.857-8.862-8.088a3.508,3.508,0,0,1,3.8-3.584h.012l17.832.044c7.706.1,12.3,6.4,13.925,9.1,1.1,1.833,1.913,1.784,4.334,1.642.648-.039,1.384-.083,2.192-.083a1.615,1.615,0,1,1,0,3.23c-.713,0-1.367.039-2,.077-.549.033-1.094.065-1.629.065" transform="translate(-2.643 -9.784)" fill="#020a28"/>
              <path id="Path_1034" data-name="Path 1034" d="M5.658,115.688c-3.526,0-5.645-3.1-5.658-6.1a5.434,5.434,0,0,1,5.774-5.57l16.807-.1h.01a1.615,1.615,0,0,1,.009,3.23l-16.807.1c-2.238.013-2.566,1.463-2.563,2.327.005,1.2.763,2.887,2.43,2.887h.007l17.31-.051h.005a1.614,1.614,0,0,1,0,3.229l-17.31.051Z" transform="translate(0 -11.992)" fill="#020a28"/>
              <path id="Path_1035" data-name="Path 1035" d="M10.257,125.019A5.78,5.78,0,0,1,4.6,119.136c-.037-2.619,1.744-5.482,5.743-5.579a1.614,1.614,0,0,1,.08,3.228c-2.286.056-2.606,1.468-2.595,2.3a2.6,2.6,0,0,0,2.427,2.7h.011l5.948-.025h.006a1.615,1.615,0,0,1,.007,3.23l-5.949.024Z" transform="translate(-0.531 -13.104)" fill="#020a28"/>
              <rect id="Rectangle_619" data-name="Rectangle 619" width="3.23" height="38.716" transform="translate(62.451 79.961)" fill="#d7263d"/>
            </g>
          </g>
        </g>
      </g>
    </g>
  </g>
</svg>
