<svg xmlns="http://www.w3.org/2000/svg" width="43" height="42" viewBox="0 0 43 42">
  <g id="Group_235" data-name="Group 235" transform="translate(0.245 -0.49)">
    <g id="Group_230" data-name="Group 230" transform="translate(13.225 11.571)">
      <g id="Group_229" data-name="Group 229" transform="translate(0 0)">
        <path id="Path_144" data-name="Path 144" d="M416.987,635.353h3.678v11.822h-3.678Zm1.84-5.878a2.131,2.131,0,1,1-2.132,2.13,2.13,2.13,0,0,1,2.132-2.13" transform="translate(-416.696 -629.475)" fill="#fff"/>
        <path id="Path_145" data-name="Path 145" d="M426.411,638.413h3.522v1.615h.05a3.863,3.863,0,0,1,3.478-1.909c3.717,0,4.4,2.447,4.4,5.632v6.484h-3.67v-5.748c0-1.371-.027-3.136-1.911-3.136-1.912,0-2.2,1.493-2.2,3.036v5.848h-3.67Z" transform="translate(-420.136 -632.536)" fill="#fff"/>
      </g>
    </g>
    <g id="Ellipse_45" data-name="Ellipse 45" transform="translate(-0.245 0.49)" fill="none" stroke="#d7263d" stroke-width="2">
      <ellipse cx="21.5" cy="21" rx="21.5" ry="21" stroke="none"/>
      <ellipse cx="21.5" cy="21" rx="20.5" ry="20" fill="none"/>
    </g>
  </g>
</svg>
