<svg xmlns="http://www.w3.org/2000/svg" width="43" height="42" viewBox="0 0 43 42">
  <g id="Group_2845" data-name="Group 2845" transform="translate(-13041 -931)">
    <g id="Group_236" data-name="Group 236" transform="translate(13040.755 930.51)">
      <g id="Group_227" data-name="Group 227" transform="translate(11.571 11.572)">
        <g id="Group_226" data-name="Group 226" transform="translate(0 0)">
          <path id="Path_140" data-name="Path 140" d="M472.488,582.48c2.675,0,2.992.011,4.048.059a5.522,5.522,0,0,1,1.86.345,3.319,3.319,0,0,1,1.9,1.9,5.552,5.552,0,0,1,.345,1.86c.048,1.056.058,1.373.058,4.048s-.01,2.992-.058,4.048a5.556,5.556,0,0,1-.345,1.86,3.319,3.319,0,0,1-1.9,1.9,5.546,5.546,0,0,1-1.86.345c-1.056.048-1.373.059-4.048.059s-2.992-.011-4.048-.059a5.551,5.551,0,0,1-1.86-.345,3.319,3.319,0,0,1-1.9-1.9,5.545,5.545,0,0,1-.345-1.86c-.048-1.056-.059-1.374-.059-4.048s.011-2.992.059-4.048a5.541,5.541,0,0,1,.345-1.86,3.319,3.319,0,0,1,1.9-1.9,5.527,5.527,0,0,1,1.86-.345c1.057-.048,1.373-.059,4.048-.059m0-1.8c-2.721,0-3.061.012-4.13.06a7.352,7.352,0,0,0-2.431.466,5.12,5.12,0,0,0-2.93,2.93,7.345,7.345,0,0,0-.465,2.432c-.049,1.068-.061,1.409-.061,4.13s.012,3.061.061,4.13a7.338,7.338,0,0,0,.465,2.431,5.124,5.124,0,0,0,2.93,2.93,7.355,7.355,0,0,0,2.431.466c1.069.048,1.409.06,4.13.06s3.061-.011,4.13-.06a7.367,7.367,0,0,0,2.432-.466,5.125,5.125,0,0,0,2.93-2.93,7.321,7.321,0,0,0,.465-2.431c.049-1.069.061-1.41.061-4.13s-.012-3.062-.061-4.13a7.329,7.329,0,0,0-.465-2.432,5.121,5.121,0,0,0-2.93-2.93,7.364,7.364,0,0,0-2.432-.466c-1.069-.048-1.409-.06-4.13-.06" transform="translate(-462.471 -580.675)" fill="#020a28"/>
          <path id="Path_141" data-name="Path 141" d="M474.97,588.03a5.144,5.144,0,1,0,5.144,5.144,5.144,5.144,0,0,0-5.144-5.144m0,8.483a3.339,3.339,0,1,1,3.339-3.339,3.339,3.339,0,0,1-3.339,3.339" transform="translate(-464.952 -583.156)" fill="#020a28"/>
          <path id="Path_142" data-name="Path 142" d="M486.249,587.111a1.2,1.2,0,1,1-1.2-1.2,1.2,1.2,0,0,1,1.2,1.2" transform="translate(-469.682 -582.441)" fill="#020a28"/>
        </g>
      </g>
      <g id="Ellipse_46" data-name="Ellipse 46" transform="translate(0.245 0.49)" fill="none" stroke="#d7263d" stroke-width="2">
        <ellipse cx="21.5" cy="21" rx="21.5" ry="21" stroke="none"/>
        <ellipse cx="21.5" cy="21" rx="20.5" ry="20" fill="none"/>
      </g>
    </g>
  </g>
</svg>
