<svg xmlns="http://www.w3.org/2000/svg" width="43" height="42" viewBox="0 0 43 42">
  <g id="Group_2847" data-name="Group 2847" transform="translate(-13160 -931)">
    <g id="Group_239" data-name="Group 239" transform="translate(13159.775 930.51)">
      <g id="Group_225" data-name="Group 225" transform="translate(12.398 13.224)">
        <path id="Path_139" data-name="Path 139" d="M419.791,603.015A12.426,12.426,0,0,0,432.3,590.5q0-.286-.013-.569a8.936,8.936,0,0,0,2.193-2.276,8.794,8.794,0,0,1-2.525.692,4.412,4.412,0,0,0,1.933-2.432,8.8,8.8,0,0,1-2.792,1.067,4.4,4.4,0,0,0-7.493,4.01,12.482,12.482,0,0,1-9.064-4.594,4.4,4.4,0,0,0,1.361,5.87,4.362,4.362,0,0,1-1.991-.551c0,.019,0,.038,0,.057a4.4,4.4,0,0,0,3.528,4.311,4.388,4.388,0,0,1-1.986.075,4.4,4.4,0,0,0,4.108,3.054,8.893,8.893,0,0,1-6.51,1.822,12.446,12.446,0,0,0,6.74,1.975" transform="translate(-413.051 -585.597)" fill="#020a28"/>
      </g>
      <g id="Ellipse_49" data-name="Ellipse 49" transform="translate(0.224 0.49)" fill="none" stroke="#d7263d" stroke-width="2">
        <ellipse cx="21.5" cy="21" rx="21.5" ry="21" stroke="none"/>
        <ellipse cx="21.5" cy="21" rx="20.5" ry="20" fill="none"/>
      </g>
    </g>
  </g>
</svg>
