<svg xmlns="http://www.w3.org/2000/svg" xmlns:xlink="http://www.w3.org/1999/xlink" width="85.237" height="85.237" viewBox="0 0 85.237 85.237">
  <defs>
    <clipPath id="clip-path">
      <rect id="Rectangle_631" data-name="Rectangle 631" width="59.831" height="59.872" fill="none"/>
    </clipPath>
  </defs>
  <g id="Group_2841" data-name="Group 2841" transform="translate(-962.717 -2131.937)">
    <circle id="Ellipse_45" data-name="Ellipse 45" cx="37.5" cy="37.5" r="37.5" transform="translate(968 2137)" fill="#fff"/>
    <g id="Group_366" data-name="Group 366" transform="translate(962.412 2143.33) rotate(-9)">
      <g id="Group_365" data-name="Group 365" transform="translate(0 0)">
        <g id="Group_364" data-name="Group 364">
          <g id="Group_363" data-name="Group 363">
            <path id="Path_176" data-name="Path 176" d="M652.7,822.242a37.25,37.25,0,1,1,26.62-11.193,1.659,1.659,0,0,1-2.37-2.321,33.849,33.849,0,1,0-7.7,5.9,1.659,1.659,0,1,1,1.62,2.9A37.277,37.277,0,0,1,652.7,822.242Z" transform="translate(-615.195 -747.437)" fill="#020a28"/>
          </g>
        </g>
      </g>
    </g>
    <g id="Group_2795" data-name="Group 2795" transform="translate(975.494 2144.5)">
      <g id="Group_2794" data-name="Group 2794" transform="translate(0 0)" clip-path="url(#clip-path)">
        <path id="Path_1053" data-name="Path 1053" d="M29.916,59.872A29.936,29.936,0,1,1,59.831,29.936,29.959,29.959,0,0,1,29.916,59.872m0-56.756a26.82,26.82,0,1,0,26.8,26.82,26.84,26.84,0,0,0-26.8-26.82" transform="translate(0 0)" fill="#d7263d"/>
        <path id="Path_1054" data-name="Path 1054" d="M34.878,55.641a4.662,4.662,0,0,1-4.7-4,7.023,7.023,0,0,1,.116-2.224c.044-.283.087-.569.122-.855a13.542,13.542,0,0,1-2.755-.629,1.723,1.723,0,0,0-.1.639,5.3,5.3,0,0,1-.589,2.379,4.336,4.336,0,0,1-2.837,2.064,5.02,5.02,0,0,1-4.062-.762,4.714,4.714,0,0,1-1.243-6.778,7.036,7.036,0,0,1,1.655-1.489c.252-.185.519-.379.779-.588A13.523,13.523,0,0,1,19.6,40.668a1.374,1.374,0,0,0-.618.417,5.4,5.4,0,0,1-2.066,1.29,4.343,4.343,0,0,1-3.476-.477,5.015,5.015,0,0,1-2.4-3.363,4.921,4.921,0,0,1,.719-3.8,4.842,4.842,0,0,1,3.079-1.948,9.643,9.643,0,0,1,2.338,0c.406.03.839.061,1.281.079a9.9,9.9,0,0,1,.471-2.138,1.217,1.217,0,0,0-.762-.166,5.322,5.322,0,0,1-2.386-.541,4.339,4.339,0,0,1-2.123-2.8,5.018,5.018,0,0,1,.679-4.076,1.558,1.558,0,1,1,2.586,1.738,1.887,1.887,0,0,0-.252,1.544,1.322,1.322,0,0,0,.5.8,2.363,2.363,0,0,0,1.1.215A4.1,4.1,0,0,1,22,29.568a1.561,1.561,0,0,1,.137,1.513,8.134,8.134,0,0,0-.674,3.4,1.557,1.557,0,0,1-1.474,1.494,24.256,24.256,0,0,1-3.038-.083,10.6,10.6,0,0,0-1.516-.052,1.744,1.744,0,0,0-1.121.672,1.823,1.823,0,0,0-.218,1.42,1.886,1.886,0,0,0,.914,1.27,1.335,1.335,0,0,0,.924.213,2.425,2.425,0,0,0,.942-.63,4.128,4.128,0,0,1,4.071-1.135,1.559,1.559,0,0,1,1.184.989,10.5,10.5,0,0,0,2.4,3.754,1.558,1.558,0,0,1,.078,2.108A12.9,12.9,0,0,1,22.328,46.5a6.79,6.79,0,0,0-.947.766,1.624,1.624,0,0,0,.483,2.438,1.889,1.889,0,0,0,1.54.283,1.325,1.325,0,0,0,.812-.487,2.357,2.357,0,0,0,.236-1.1,4.05,4.05,0,0,1,1.985-3.54,1.557,1.557,0,0,1,1.5-.156,10.5,10.5,0,0,0,4.1.841,1.558,1.558,0,0,1,1.55,1.463,13.288,13.288,0,0,1-.214,2.882,6.885,6.885,0,0,0-.127,1.214,1.63,1.63,0,0,0,2.066,1.381A1.884,1.884,0,0,0,36.6,51.6a1.327,1.327,0,0,0,.231-.919,2.439,2.439,0,0,0-.61-.961,4.065,4.065,0,0,1-1.111-3.725,1.553,1.553,0,0,1,.957-1.211q.437-.178.851-.388a1.558,1.558,0,0,1,1.414,2.776l-.11.055a2.56,2.56,0,0,0,.343.443,5.421,5.421,0,0,1,1.24,2.086,4.34,4.34,0,0,1-.547,3.468,5.021,5.021,0,0,1-3.411,2.333,5.674,5.674,0,0,1-.973.086" transform="translate(-2.418 -4.968)" fill="#020a28"/>
        <path id="Path_1055" data-name="Path 1055" d="M52.088,44.668a1.558,1.558,0,0,1-1.1-2.659c.02-.02.051-.051.025-.211a2.091,2.091,0,0,0-.825-1.217,14.064,14.064,0,0,0-2.278-.91c-.465-.15-.969-.314-1.622-.565A1.557,1.557,0,0,1,45.432,37a10.524,10.524,0,0,0,.981-4.221,1.558,1.558,0,0,1,1.379-1.514,12.615,12.615,0,0,1,3.147.132,6.661,6.661,0,0,0,1.212.1,1.746,1.746,0,0,0,1.123-.672,1.826,1.826,0,0,0,.217-1.42,1.885,1.885,0,0,0-.913-1.27,1.345,1.345,0,0,0-.925-.212,2.452,2.452,0,0,0-.948.63,4.079,4.079,0,0,1-3.749,1.179,1.559,1.559,0,0,1-1.244-.988,10.5,10.5,0,0,0-2.559-3.855,1.558,1.558,0,0,1-.086-2.154,13.384,13.384,0,0,1,2.192-1.891,6.746,6.746,0,0,0,.948-.768,1.623,1.623,0,0,0-.483-2.437,1.888,1.888,0,0,0-1.539-.284,1.326,1.326,0,0,0-.812.486,3.931,3.931,0,0,0-.353,1.319,5.1,5.1,0,0,1-1.5,3.242,1.562,1.562,0,0,1-1.677.316,10.418,10.418,0,0,0-4.249-.8h-.03a1.557,1.557,0,0,1-1.551-1.434,12.87,12.87,0,0,1,.2-3.035,6.717,6.717,0,0,0,.127-1.213,1.746,1.746,0,0,0-.65-1.135,1.834,1.834,0,0,0-1.414-.246,1.884,1.884,0,0,0-1.289.888,1.327,1.327,0,0,0-.231.919,3.947,3.947,0,0,0,.683,1.18,5.065,5.065,0,0,1,1.227,3.513A1.558,1.558,0,0,1,31.7,22.72c-.249.1-.494.216-.731.336a1.558,1.558,0,0,1-1.58-2.678,5.182,5.182,0,0,0-.46-.688,6.781,6.781,0,0,1-1.151-2.1,4.338,4.338,0,0,1,.547-3.467,5.018,5.018,0,0,1,3.411-2.333,4.919,4.919,0,0,1,3.785.8A4.833,4.833,0,0,1,37.407,15.7a7,7,0,0,1-.117,2.224c-.047.3-.1.619-.132.943a13.465,13.465,0,0,1,2.649.532,6.579,6.579,0,0,0,.132-.708,6.81,6.81,0,0,1,.675-2.3,4.338,4.338,0,0,1,2.837-2.065,5.018,5.018,0,0,1,4.063.762,4.714,4.714,0,0,1,1.242,6.778,7.057,7.057,0,0,1-1.655,1.49c-.222.163-.448.328-.667.5A13.484,13.484,0,0,1,48.179,26.6a2.692,2.692,0,0,0,.428-.348,5.421,5.421,0,0,1,2.062-1.282,4.34,4.34,0,0,1,3.478.477,5.017,5.017,0,0,1,2.4,3.363,4.923,4.923,0,0,1-.72,3.8,4.843,4.843,0,0,1-3.079,1.948,7.066,7.066,0,0,1-2.227-.073c-.354-.048-.73-.1-1.111-.129a13.534,13.534,0,0,1-.53,2.358,16.961,16.961,0,0,1,2.7,1.083,5.087,5.087,0,0,1,2.506,3.5,3.267,3.267,0,0,1-.9,2.912,1.551,1.551,0,0,1-1.1.456" transform="translate(-6.109 -2.587)" fill="#020a28"/>
        <path id="Path_1056" data-name="Path 1056" d="M43.932,34.693a4.507,4.507,0,0,1-3.012-1.354,4.116,4.116,0,0,1-1.4-3.65,1.558,1.558,0,0,1,3.056.6,1.662,1.662,0,0,0,.509.8,1.614,1.614,0,0,0,.838.483,1.539,1.539,0,0,1,1.8,1.245,1.571,1.571,0,0,1-1.261,1.82,2.906,2.906,0,0,1-.53.048" transform="translate(-8.726 -6.292)" fill="#020a28"/>
        <path id="Path_1057" data-name="Path 1057" d="M37.341,47.182a1.558,1.558,0,0,1-1.372-.816,1.438,1.438,0,0,0-.678-.578,1.106,1.106,0,0,0-1.086-.019,1.558,1.558,0,0,1-2.849-1.263,3.341,3.341,0,0,1,2.3-1.857,4.667,4.667,0,0,1,5.051,2.234,1.558,1.558,0,0,1-1.368,2.3" transform="translate(-6.905 -9.406)" fill="#020a28"/>
        <path id="Path_1058" data-name="Path 1058" d="M29.143,40.993a1.541,1.541,0,0,1-.448-.066,1.559,1.559,0,0,1-1.045-1.939c.287-.957-.031-1.636-.189-1.687a1.558,1.558,0,0,1,.955-2.965c1.985.639,2.959,3.075,2.219,5.546a1.56,1.56,0,0,1-1.491,1.111" transform="translate(-5.834 -7.576)" fill="#020a28"/>
        <path id="Path_1059" data-name="Path 1059" d="M52.319,53.925a1.551,1.551,0,0,1-1.1-.456L11.1,13.351a1.557,1.557,0,1,1,2.2-2.2L53.42,51.266a1.558,1.558,0,0,1-1.1,2.659" transform="translate(-2.354 -2.365)" fill="#d7263d"/>
      </g>
    </g>
  </g>
</svg>
