<svg xmlns="http://www.w3.org/2000/svg" xmlns:xlink="http://www.w3.org/1999/xlink" width="85.237" height="85.237" viewBox="0 0 85.237 85.237">
  <defs>
    <clipPath id="clip-path">
      <rect id="Rectangle_630" data-name="Rectangle 630" width="47.533" height="63.569" transform="translate(0 -0.001)" fill="none"/>
    </clipPath>
  </defs>
  <g id="Group_2840" data-name="Group 2840" transform="translate(-962.717 -2131.937)">
    <circle id="Ellipse_45" data-name="Ellipse 45" cx="37.5" cy="37.5" r="37.5" transform="translate(968 2137)" fill="#fff"/>
    <g id="Group_2792" data-name="Group 2792" transform="translate(981 2148)">
      <g id="Group_2791" data-name="Group 2791" clip-path="url(#clip-path)">
        <path id="Path_1052" data-name="Path 1052" d="M0,0V53.569" transform="translate(8.441 2.999)" fill="none" stroke="#020a28" stroke-linecap="round" stroke-width="6"/>
        <path id="Path_1049" data-name="Path 1049" d="M8.441,8.426H37.958L31.383,19.579l6.575,11.155H8.441" fill="none" stroke="#d7263d" stroke-miterlimit="10" stroke-width="6"/>
        <path id="Path_1050" data-name="Path 1050" d="M44.533,30.734H8.441V8.426H44.533L37.958,19.58Z" fill="none" stroke="#020a28" stroke-linecap="round" stroke-linejoin="round" stroke-width="6"/>
        <line id="Line_133" data-name="Line 133" y2="2.424" transform="translate(8.441 2.999)" fill="none" stroke="#d7263d" stroke-miterlimit="10" stroke-width="6"/>
        <path id="Path_1051" data-name="Path 1051" d="M5.669,4.144a3.289,3.289,0,0,0,.28.52,2.754,2.754,0,0,0,.37.459,2.621,2.621,0,0,0,.373.3h3.5a2.913,2.913,0,0,0,.367-.3,3.018,3.018,0,0,0,.88-2.129,2.856,2.856,0,0,0-.06-.58,2.259,2.259,0,0,0-.17-.56,2.6,2.6,0,0,0-.27-.521,2.9,2.9,0,0,0-.38-.46,3.438,3.438,0,0,0-.45-.37,2.615,2.615,0,0,0-.52-.269,2.811,2.811,0,0,0-.56-.18,3.285,3.285,0,0,0-1.17,0,2.9,2.9,0,0,0-.57.18A2.537,2.537,0,0,0,6.779.5a3.544,3.544,0,0,0-.46.37,3.036,3.036,0,0,0-.88,2.121,2.864,2.864,0,0,0,.06.589,3.6,3.6,0,0,0,.17.561" fill="#d7263d"/>
      </g>
    </g>
    <g id="Group_366" data-name="Group 366" transform="translate(962.412 2143.33) rotate(-9)">
      <g id="Group_365" data-name="Group 365" transform="translate(0 0)">
        <g id="Group_364" data-name="Group 364">
          <g id="Group_363" data-name="Group 363">
            <path id="Path_176" data-name="Path 176" d="M652.7,822.242a37.25,37.25,0,1,1,26.62-11.193,1.659,1.659,0,0,1-2.37-2.321,33.849,33.849,0,1,0-7.7,5.9,1.659,1.659,0,1,1,1.62,2.9A37.277,37.277,0,0,1,652.7,822.242Z" transform="translate(-615.195 -747.437)" fill="#020a28"/>
          </g>
        </g>
      </g>
    </g>
  </g>
</svg>
