<svg xmlns="http://www.w3.org/2000/svg" width="347.965" height="39" viewBox="0 0 347.965 39">
  <g id="Group_2820" data-name="Group 2820" transform="translate(-140 -55)">
    <g id="Group_2694" data-name="Group 2694" transform="translate(140 57)">
      <g id="Group_220" data-name="Group 220" transform="translate(19.104 0)">
        <rect id="Rectangle_81" data-name="Rectangle 81" width="12.426" height="35.031" rx="6.213" transform="translate(0 5.251) rotate(-25)" fill="#020a28"/>
      </g>
      <g id="Group_221" data-name="Group 221" transform="translate(9.553 0)">
        <rect id="Rectangle_82" data-name="Rectangle 82" width="35.031" height="12.426" rx="6.213" transform="translate(0 31.749) rotate(-65)" fill="#3777ff"/>
      </g>
      <g id="Group_222" data-name="Group 222" transform="translate(0 0)">
        <rect id="Rectangle_83" data-name="Rectangle 83" width="12.426" height="35.031" rx="6.213" transform="translate(0 5.251) rotate(-25)" fill="#020a28"/>
      </g>
      <g id="Group_223" data-name="Group 223" transform="translate(36.93 2.041)">
        <path id="Path_215" data-name="Path 215" d="M347.183,806.663H319.436v0a6.212,6.212,0,0,0,5.615-3.586l4.28-9.18h18a3.689,3.689,0,0,0,0-7.379H332.772l1.833-3.929a6.217,6.217,0,0,0-5.621-8.841H347.33a16.46,16.46,0,1,1-.148,32.919Z" transform="translate(-319.436 -773.744)" fill="#020a28"/>
      </g>
      <g id="Group_224" data-name="Group 224" transform="translate(30.698 2.041)">
        <path id="Path_216" data-name="Path 216" d="M322.677,782.585l-1.833,3.929-3.442,7.379-4.28,9.18a6.214,6.214,0,1,1-11.263-5.251l9.554-20.488a6.214,6.214,0,0,1,11.263,5.251Z" transform="translate(-301.276 -773.744)" fill="#d7263d"/>
      </g>
    </g>
    <g id="Group_219" data-name="Group 219" transform="translate(240 55)">
      <g id="Group_218" data-name="Group 218" transform="translate(-3)">
        <path id="Path_206" data-name="Path 206" d="M109.487,919.735c.845-2.834,1.84-3.829,3.879-3.829a3.684,3.684,0,0,1,3.68,3.58,6.974,6.974,0,0,1-.547,2.486l-5.172,14.72c-1.343,3.83-2.636,5.172-5.023,5.172-2.039,0-3.283-1.094-4.227-3.879l-3.133-9.15-2.537,7.857c-1.243,3.879-2.486,5.172-4.824,5.172-2.039,0-3.581-1.343-4.476-3.879l-5.62-16.063a5.827,5.827,0,0,1-.6-2.536,3.59,3.59,0,0,1,3.631-3.481c2.039,0,3.033.995,3.879,3.779l3.232,10.891,3.58-11.289c.746-2.387,1.84-3.332,3.83-3.332,1.79,0,2.884.995,3.63,3.332l3.581,11.239Z" transform="translate(-80.891 -905.015)" fill="#020a28"/>
        <path id="Path_207" data-name="Path 207" d="M166.252,906.885a12.155,12.155,0,0,1,6.714-2.088,9.422,9.422,0,0,1,6.415,2.437c1.791,1.641,2.486,3.631,2.486,6.813v11.935c0,1.74-.049,2.188-.5,3.034a3.63,3.63,0,0,1-6.315,0c-.448-.846-.5-1.243-.5-3.034v-9.846c0-3.133-1.542-5.023-4.078-5.023a4.268,4.268,0,0,0-4.227,4.525v10.344c0,1.74-.05,2.188-.5,3.034a3.63,3.63,0,0,1-6.316,0c-.448-.846-.5-1.243-.5-3.034v-27.1c0-1.741.05-2.188.5-3.033a3.63,3.63,0,0,1,6.316,0c.448.845.5,1.243.5,3.033Z" transform="translate(-120.128 -894.004)" fill="#020a28"/>
        <path id="Path_208" data-name="Path 208" d="M232.906,919.684a13.39,13.39,0,0,1,3.283,9.15c0,7.46-5.222,13.079-12.184,13.079a12.2,12.2,0,0,1-8.952-3.978,13.283,13.283,0,0,1-3.282-9.3c0-7.261,5.321-12.93,12.234-12.93A12.174,12.174,0,0,1,232.906,919.684Zm-13.924,9.051c0,3.68,2.089,6.365,4.873,6.365,2.885,0,5.122-2.784,5.122-6.315,0-3.482-2.238-6.266-5.122-6.266C221.12,922.519,218.982,925.254,218.982,928.735Z" transform="translate(-146.687 -904.914)" fill="#020a28"/>
        <path id="Path_209" data-name="Path 209" d="M267.236,901.447A2.653,2.653,0,0,1,269.673,900a3.061,3.061,0,0,1,3.033,2.934,3.164,3.164,0,0,1-.348,1.343l-3.73,6.664a2.772,2.772,0,0,1-2.486,1.492,2.914,2.914,0,0,1-2.736-4.376Z" transform="translate(-172.446 -897.021)" fill="#020a28"/>
        <path id="Path_210" data-name="Path 210" d="M301.269,920.729a3.155,3.155,0,0,1-2.834,3.183c-.8,0-.845,0-3.083-.995a7.072,7.072,0,0,0-2.785-.746c-1.193,0-1.939.5-1.939,1.293,0,.945.4,1.193,3.829,2.537,3.233,1.293,4.277,1.89,5.57,3.183a6.6,6.6,0,0,1,1.79,4.575c0,4.824-3.929,8.156-9.647,8.156-4.973,0-9.35-2.486-9.35-5.272a3.346,3.346,0,0,1,3.033-3.283c.846,0,.846,0,3.78,1.294a7.23,7.23,0,0,0,2.934.8,1.938,1.938,0,0,0,2.138-1.691c0-.845-.547-1.292-2.784-2.138-3.631-1.343-4.625-1.84-5.868-2.735a5.87,5.87,0,0,1-2.487-5.271c0-4.526,4.028-7.907,9.4-7.907C297.39,915.706,301.269,918.043,301.269,920.729Z" transform="translate(-182.405 -904.914)" fill="#020a28"/>
        <path id="Path_211" data-name="Path 211" d="M371.525,898.878c0-1.741.05-2.188.5-3.033a3.629,3.629,0,0,1,6.315,0c.448.845.5,1.243.5,3.033v27.8c0,2.636-1.343,4.178-3.68,4.178-1.79,0-2.785-.8-3.531-2.885A7.04,7.04,0,0,1,365.308,931a10.128,10.128,0,0,1-8.355-4.575,15.666,15.666,0,0,1-2.736-8.7,14.106,14.106,0,0,1,4.476-10.244,11.258,11.258,0,0,1,6.913-2.685,8.655,8.655,0,0,1,5.918,2.288Zm-10,18.6c0,3.68,2.138,6.366,5.073,6.366,2.835,0,4.973-2.736,4.973-6.316,0-3.531-2.138-6.266-4.973-6.266C363.717,911.261,361.529,913.946,361.529,917.477Z" transform="translate(-218.298 -894.004)" fill="#020a28"/>
        <path id="Path_212" data-name="Path 212" d="M431.773,919.684a13.393,13.393,0,0,1,3.283,9.15c0,7.46-5.222,13.079-12.184,13.079a12.2,12.2,0,0,1-8.952-3.978,13.281,13.281,0,0,1-3.283-9.3c0-7.261,5.321-12.93,12.234-12.93A12.175,12.175,0,0,1,431.773,919.684Zm-13.925,9.051c0,3.68,2.089,6.365,4.874,6.365,2.884,0,5.122-2.784,5.122-6.315,0-3.482-2.238-6.266-5.122-6.266C419.987,922.519,417.848,925.254,417.848,928.735Z" transform="translate(-246.661 -904.914)" fill="#020a28"/>
        <path id="Path_213" data-name="Path 213" d="M490.211,919.735c.845-2.834,1.84-3.829,3.879-3.829a3.685,3.685,0,0,1,3.68,3.58,6.973,6.973,0,0,1-.547,2.486l-5.172,14.72c-1.343,3.83-2.636,5.172-5.023,5.172-2.038,0-3.282-1.094-4.227-3.879l-3.133-9.15-2.536,7.857c-1.244,3.879-2.487,5.172-4.824,5.172-2.039,0-3.581-1.343-4.476-3.879l-5.62-16.063a5.811,5.811,0,0,1-.6-2.536,3.589,3.589,0,0,1,3.63-3.481c2.039,0,3.033.995,3.879,3.779l3.233,10.891,3.58-11.289c.746-2.387,1.84-3.332,3.83-3.332,1.79,0,2.884.995,3.63,3.332l3.581,11.239Z" transform="translate(-272.29 -905.015)" fill="#020a28"/>
        <path id="Path_214" data-name="Path 214" d="M539.666,920.132c0-2.586,1.492-4.277,3.73-4.277,1.641,0,2.685.746,3.381,2.537a8.671,8.671,0,0,1,6.714-2.685,9.512,9.512,0,0,1,6.366,2.188c1.939,1.74,2.636,3.531,2.636,7.012v11.985c0,1.74-.05,2.188-.5,3.034a3.63,3.63,0,0,1-6.315,0c-.448-.846-.5-1.243-.5-3.034V926.646c0-2.834-1.592-4.624-4.078-4.624a4.164,4.164,0,0,0-4.127,4.326v10.543c0,1.74-.05,2.188-.5,3.034a3.63,3.63,0,0,1-6.315,0c-.448-.846-.5-1.243-.5-3.034Z" transform="translate(-311.527 -904.914)" fill="#020a28"/>
      </g>
    </g>
  </g>
</svg>
