<svg xmlns="http://www.w3.org/2000/svg" width="122" height="51.613" viewBox="0 0 122 51.613">
  <g id="Group_2829" data-name="Group 2829" transform="translate(-1613.385 -144.88)">
    <g id="Group_249" data-name="Group 249" transform="translate(1613.385 144.88)">
      <g id="Group_240" data-name="Group 240" transform="translate(38.547 5.916)">
        <g id="Group_238" data-name="Group 238" transform="translate(0 26.33)">
          <rect id="Rectangle_84" data-name="Rectangle 84" width="1.597" height="14.097" transform="translate(0 0.675) rotate(-25)" fill="#fff"/>
        </g>
        <g id="Group_239" data-name="Group 239" transform="translate(8.553 0)">
          <rect id="Rectangle_85" data-name="Rectangle 85" width="1.597" height="14.126" transform="translate(0 0.675) rotate(-25.001)" fill="#fff"/>
        </g>
      </g>
      <g id="Group_242" data-name="Group 242" transform="translate(24.035 0.005)">
        <g id="Group_241" data-name="Group 241">
          <path id="Path_226" data-name="Path 226" d="M1674.8,190.579l-1.447-.676,14.515-31.128a8.641,8.641,0,0,0-15.663-7.3l-5.959,12.781-1.447-.675,5.959-12.781a10.238,10.238,0,1,1,18.557,8.654Z" transform="translate(-1664.793 -144.886)" fill="#fff"/>
        </g>
      </g>
      <g id="Group_244" data-name="Group 244" transform="translate(0 0.005)">
        <g id="Group_243" data-name="Group 243">
          <path id="Path_227" data-name="Path 227" d="M1659.475,196.489a10.254,10.254,0,0,1-9.3-5.91l-14.515-31.128a10.237,10.237,0,0,1,4.951-13.606h0a10.25,10.25,0,0,1,13.607,4.952l14.514,31.127a10.237,10.237,0,0,1-9.263,14.565Zm-14.544-50.005a8.64,8.64,0,0,0-7.818,12.292l14.515,31.128a8.641,8.641,0,1,0,15.662-7.3l-14.515-31.128A8.654,8.654,0,0,0,1644.931,146.483Z" transform="translate(-1634.7 -144.886)" fill="#fff"/>
        </g>
      </g>
      <g id="Group_246" data-name="Group 246" transform="translate(53.01)">
        <g id="Group_245" data-name="Group 245">
          <path id="Path_228" data-name="Path 228" d="M1744.229,195.9h-42.157v-.006a9.438,9.438,0,0,0,8.531-5.449l6.5-13.948h27.349a5.605,5.605,0,0,0,0-11.21h-22.119l2.784-5.97a9.444,9.444,0,0,0-8.541-13.432h27.875a25.008,25.008,0,1,1-.224,50.015Z" transform="translate(-1701.272 -145.081)" fill="#fff"/>
          <path id="Path_229" data-name="Path 229" d="M1744.027,196.493h-42.956v-1.6l.8-.007a8.679,8.679,0,0,0,7.81-4.988l6.717-14.409h27.858a4.807,4.807,0,0,0,0-9.613h-23.372l3.314-7.107a8.657,8.657,0,0,0-4.182-11.484,8.545,8.545,0,0,0-3.636-.812v-1.6h27.876A25.868,25.868,0,0,1,1770,168.906a25.544,25.544,0,0,1-6.814,19.383A25.908,25.908,0,0,1,1744.027,196.493Zm-36.713-1.6h36.713a24.324,24.324,0,0,0,17.989-7.7,23.957,23.957,0,0,0,6.388-18.183,24.266,24.266,0,0,0-24.153-22.538h-22.4a10.261,10.261,0,0,1,3.792,12.971l-2.254,4.835h20.865a6.4,6.4,0,0,1,0,12.808h-26.841l-6.287,13.487A10.237,10.237,0,0,1,1707.314,194.9Z" transform="translate(-1701.071 -144.88)" fill="#fff"/>
        </g>
      </g>
      <g id="Group_248" data-name="Group 248" transform="translate(43.542)">
        <g id="Group_247" data-name="Group 247">
          <path id="Path_230" data-name="Path 230" d="M1699.446,196.488a10.111,10.111,0,0,1-4.316-.962,10.278,10.278,0,0,1-5.914-9.285,10.169,10.169,0,0,1,.96-4.316l14.518-31.129a10.3,10.3,0,0,1,9.3-5.916,10.138,10.138,0,0,1,4.311.962,10.255,10.255,0,0,1,4.954,13.607l-14.516,31.129a10.281,10.281,0,0,1-9.252,5.91Zm14.543-50.01a8.7,8.7,0,0,0-7.848,4.994L1691.624,182.6a8.586,8.586,0,0,0-.811,3.641,8.676,8.676,0,0,0,4.993,7.838,9.054,9.054,0,0,0,3.674.811,8.679,8.679,0,0,0,7.81-4.988l14.516-31.129a8.657,8.657,0,0,0-4.182-11.484A8.546,8.546,0,0,0,1713.989,146.477Z" transform="translate(-1689.216 -144.88)" fill="#fff"/>
        </g>
      </g>
    </g>
  </g>
</svg>
